<svg id="Ebene_1" xmlns="http://www.w3.org/2000/svg" viewBox="0 0 167.9 65.5">
  <style>
    .st0{fill:#CC1132;} .st1{fill:#1D1D1B;}
  </style>
  <title>
    2015_10_05_THB_FB-IM_Logo_RGB
  </title>
  <path class="st0" d="M21.2 35.8c-7.1-3.4-14.1 3.5-21.2 0v5.8c7.1 3.5 14.2-3.5 21.3 0 7.1 3.3 14.1-3.5 21.2-.1v-5.8c-7.1-3.4-14.2 3.6-21.3.1M0 .2h5.8V6H0V.2zm0 11.6h42.5v5.8H0v-5.8zm0 11.8h42.5v5.8H0v-5.8zM12.2.2H18V6h-5.8V.2zm12.3 0h5.8V6h-5.8V.2zm12.2 0h5.8V6h-5.8V.2z"/>
  <path class="st1" d="M53.5 1.7h-2.1V.3h5.8v1.4H55v5.6h-1.5V1.7zm3.4 3C56.8 3.2 58 2 59.4 1.9h.1c1.4 0 2.6 1.2 2.6 2.6v.7h-3.8c.1.6.7 1 1.3 1 .5 0 1-.2 1.3-.5l.9.8c-1 1.2-2.8 1.3-4 .3-.5-.6-.9-1.3-.9-2.1zm3.8-.5c0-.6-.5-1.1-1.1-1.1-.6 0-1.1.5-1.2 1.1h2.3zm2.3.5c0-1.5 1.2-2.8 2.7-2.8h.1c.8 0 1.6.3 2.1.9l-.9 1c-.3-.4-.7-.6-1.2-.6-.8 0-1.3.7-1.3 1.4-.1.8.5 1.4 1.2 1.5h.1c.5 0 .9-.2 1.2-.6l1 .9c-.5.7-1.3 1-2.2 1-1.5 0-2.8-1.2-2.8-2.7zM69 0h1.5v2.7c.3-.5.9-.9 1.6-.9 1 0 1.8.7 1.8 1.7v3.8h-1.5v-3c.1-.5-.2-1-.7-1.1h-.2c-.5 0-.9.4-1 .9v3.2H69V0zm6.2 1.9h1.5v.8c.3-.5.9-.9 1.6-.9 1 0 1.8.7 1.8 1.7v3.8h-1.5v-3c.1-.5-.2-1-.7-1.1h-.2c-.5 0-.9.4-1 .9v3.2h-1.5V1.9zM81.5 0h1.6v1.4h-1.6V0zm0 1.9H83v5.4h-1.5V1.9zM84 6.6l.7-1c.5.4 1.1.6 1.7.6.4 0 .6-.2.6-.4 0-.3-.5-.4-1.1-.6-.9-.1-1.5-.8-1.6-1.6 0-1 .8-1.7 1.8-1.7h.2c.7 0 1.4.2 2 .6l-.6 1c-.4-.3-.9-.5-1.5-.5-.4 0-.6.2-.6.4 0 .3.5.4 1.1.6.8.2 1.6.6 1.6 1.6 0 1.2-.9 1.7-2 1.7-.8.1-1.6-.2-2.3-.7zm5.2-1.9c0-1.5 1.2-2.8 2.7-2.8h.1c.8 0 1.6.3 2.1.9l-.9 1c-.3-.4-.7-.6-1.2-.6-.8 0-1.3.7-1.3 1.4-.1.8.5 1.4 1.3 1.5h.1c.5 0 .9-.2 1.2-.6l.9.9c-.5.7-1.3 1-2.2 1-1.5 0-2.8-1.2-2.8-2.7zm6-4.7h1.5v2.7c.3-.5.9-.9 1.6-.9 1 0 1.8.7 1.8 1.7v3.8h-1.5v-3c.1-.5-.2-1-.7-1.1h-.2c-.5 0-.9.4-1 .9v3.2h-1.5V0zm6 4.7c-.1-1.5 1.1-2.7 2.5-2.8h.1c1.4 0 2.6 1.2 2.6 2.6v.7h-3.7c.1.6.7 1 1.3 1 .5 0 1-.2 1.3-.6l.9.8c-1 1.2-2.8 1.4-4 .4-.6-.6-1-1.3-1-2.1zm3.7-.5c0-.6-.5-1.1-1.1-1.1-.6 0-1.1.5-1.2 1.1h2.3zm5.8-3.9h1.5v2.8h2.8V.3h1.5v7H115V4.5h-2.8v2.8h-1.5v-7zm7.2 4.4c0-1.6 1.3-2.9 2.9-2.9s2.9 1.3 2.9 2.9-1.3 2.9-2.9 2.9-2.9-1.3-2.9-2.9zm4.3 0c0-.8-.6-1.4-1.4-1.5h-.1c-.8 0-1.4.6-1.4 1.3v.1c0 .8.6 1.4 1.4 1.5h.1c.8 0 1.4-.6 1.4-1.3v-.1zm2.3 0c0-1.5 1.2-2.8 2.7-2.8h.1c.8 0 1.6.3 2.1.9l-.9 1c-.3-.4-.7-.6-1.2-.6-.8 0-1.4.7-1.3 1.4-.1.8.5 1.4 1.3 1.5h.1c.5 0 .9-.2 1.2-.6l.9.9c-.5.7-1.3 1-2.2 1-1.5 0-2.8-1.2-2.8-2.7zm6-4.7h1.5v2.7c.3-.5.9-.9 1.6-.9 1 0 1.8.7 1.8 1.7v3.8h-1.5v-3c.1-.5-.2-1-.7-1.1h-.1c-.5 0-1 .3-1 .8v3.2h-1.5V0h-.1zm5.8 6.6l.6-1c.5.4 1.1.6 1.7.6.4 0 .6-.2.6-.4 0-.3-.5-.4-1.1-.6-.9-.1-1.5-.8-1.6-1.6 0-1 .8-1.7 1.8-1.7h.2c.7 0 1.4.2 2 .6l-.6 1c-.4-.3-.9-.5-1.4-.5-.4 0-.6.2-.6.4 0 .3.5.4 1.1.6.8.2 1.6.6 1.6 1.6 0 1.2-.9 1.7-2 1.7-.8.1-1.6-.2-2.3-.7zm5.2-1.9c0-1.5 1.2-2.8 2.7-2.8h.1c.8 0 1.6.3 2.1.9l-.9 1c-.3-.4-.7-.6-1.2-.6-.8 0-1.3.7-1.3 1.4-.1.8.5 1.4 1.3 1.5h.1c.5 0 .9-.2 1.2-.6l.9.9c-.5.7-1.3 1-2.2 1-1.5.1-2.8-1.1-2.8-2.7zm6-4.7h1.5v2.7c.3-.5.9-.9 1.6-.9 1 0 1.8.7 1.8 1.7v3.8h-1.5v-3c.1-.5-.2-1-.7-1.1h-.2c-.5 0-.9.4-1 .9v3.2h-1.5V0zm6.1 5.4V1.9h1.5v3c-.1.5.3 1 .7 1h.2c.5 0 .9-.4.9-.9V1.9h1.5v5.4H157v-.8c-.3.5-.9.9-1.6.9-1 0-1.8-.8-1.8-1.7v-.3zM160 0h1.5v7.3H160V0zm2.7 4.7c-.1-1.5 1.1-2.7 2.5-2.8h.1c1.4 0 2.6 1.2 2.6 2.6v.7h-3.7c.1.6.7 1 1.3 1 .5 0 1-.2 1.3-.6l.9.8c-1 1.2-2.8 1.4-4 .4-.6-.6-1-1.3-1-2.1zm3.8-.5c0-.6-.5-1.1-1.1-1.1-.6 0-1.1.5-1.2 1.1h2.3zM51.9 12.3h3.2c.7 0 1.3.2 1.8.6.3.3.5.7.5 1.2 0 .6-.3 1.2-.9 1.5.8.2 1.3.9 1.3 1.7 0 1.3-1 1.9-2.6 1.9h-3.3v-6.9zm4 2.1c0-.4-.4-.8-.9-.7h-1.6v1.5h1.4c.7-.1 1.1-.3 1.1-.8zm-.8 2h-1.8v1.5h1.8c.7 0 1.1-.2 1.1-.8.1-.4-.3-.7-1.1-.7zm3.8-2.5h1.5V15c.2-.7.9-1.2 1.7-1.2v1.6H62c-1 0-1.6.6-1.6 1.9v2h-1.5v-5.4zm3.6 3.9c0-1.2.9-1.7 2.2-1.7.4 0 .9.1 1.3.2v-.1c0-.6-.4-1-1-1h-.2c-.5 0-1 .1-1.5.3l-.3-1.2c.7-.3 1.4-.4 2.1-.4.7-.1 1.3.2 1.8.6.4.5.6 1.1.6 1.7v3.1H66v-.6c-.4.5-1 .7-1.6.7-.9.1-1.7-.6-1.8-1.5-.1 0-.1-.1-.1-.1zm3.5-.4v-.3c-.3-.1-.7-.2-1-.2-.5-.1-.9.2-1 .7v.1c0 .4.4.7.8.7h.1c.5.1 1.1-.3 1.2-.8-.1-.1-.1-.2-.1-.2zm2.8-3.5h1.5v.8c.3-.5.9-.9 1.6-.9 1 0 1.8.7 1.8 1.7v3.8h-1.5v-3c.1-.5-.2-1-.7-1.1h-.2c-.5 0-.9.4-1 .9v3.2h-1.5v-5.4zm6 2.7c-.1-1.4.9-2.6 2.2-2.8h.2c.7 0 1.3.3 1.7.8V12h1.5v7.3h-1.5v-.8c-.4.6-1 .9-1.7.9-1.4 0-2.5-1.2-2.5-2.6.1 0 .1-.1.1-.2zm4.1 0c.1-.7-.5-1.4-1.2-1.4s-1.4.5-1.4 1.2v.2c-.1.7.5 1.4 1.2 1.4s1.4-.5 1.4-1.2v-.2zm2.6 0c-.1-1.5 1.1-2.7 2.5-2.8h.1c1.4 0 2.6 1.2 2.6 2.6v.7H83c.1.6.7 1 1.3 1 .5 0 1-.2 1.3-.5l.9.8c-1 1.2-2.8 1.3-4 .3-.6-.5-1-1.3-1-2.1zm3.8-.4c0-.6-.5-1.1-1.1-1.1-.6 0-1.1.5-1.2 1.1h2.3zm2.6-2.3h1.5v.8c.4-.5.9-.9 1.6-.9 1 0 1.8.7 1.8 1.7v3.8h-1.5v-3c.1-.5-.2-1-.7-1.1h-.2c-.5 0-.9.4-1 .9v3.2h-1.5v-5.4zm7.7 4.7v.7h-1.5V12h1.5v2.7c.4-.6 1-.9 1.7-.9 1.4 0 2.5 1.2 2.5 2.6v.2c.1 1.4-.9 2.6-2.2 2.8h-.2c-.7 0-1.4-.3-1.8-.8zm2.6-2c.1-.7-.5-1.4-1.2-1.4s-1.4.5-1.4 1.2v.2c-.1.7.5 1.4 1.2 1.4.7.1 1.4-.5 1.4-1.2v-.2zm2.6.8v-3.5h1.5v3c-.1.5.2 1 .7 1.1h.2c.5 0 .9-.4 1-.9v-3.2h1.5v5.4h-1.5v-.8c-.3.5-.9.9-1.6.9-1 0-1.8-.7-1.8-1.7v-.3zm6.3-3.5h1.5V15c.2-.7.9-1.2 1.7-1.2v1.6h-.1c-1 0-1.6.6-1.6 1.9v2h-1.5v-5.4zm4.1 6.5l.5-1.1c.5.3 1.2.5 1.8.5.7.1 1.4-.4 1.5-1.1V18c-.4.6-1.1.9-1.8.9-1.3 0-2.4-1-2.4-2.3v-.2c-.1-1.3.9-2.4 2.2-2.5h.2c.7 0 1.3.3 1.7.8V14h1.5v4.1c.1.8-.2 1.5-.7 2.1-.6.5-1.5.8-2.3.7-.6 0-1.5-.2-2.2-.5zm3.9-4c-.1-.7-.7-1.3-1.4-1.2-.6.1-1.1.6-1.2 1.2 0 .7.5 1.2 1.2 1.2h.1c.6 0 1.2-.5 1.3-1.2zM51.8 27.7V24h.7v3.7c-.2 1 .6 2 1.6 2.2h.4c1 .1 1.9-.7 2-1.7V24h.7v3.7c0 1.5-1.2 2.7-2.7 2.7s-2.7-1.2-2.7-2.7zm7.1-2.1h.7v.8c.3-.6 1-1 1.6-.9 1-.1 1.8.7 1.8 1.6v3.3h-.7v-2.8c.1-.7-.4-1.3-1.1-1.4h-.3c-.8 0-1.4.6-1.4 1.4v2.9h-.7v-4.9h.1zm5.7-1.8h.8v.8h-.8v-.8zm0 1.8h.8v4.8h-.7l-.1-4.8zm2 0h.8l1.6 4 1.6-4h.8l-2.1 4.8h-.6l-2.1-4.8zm5.3 2.5c-.1-1.3.9-2.4 2.2-2.5h.1c1.3 0 2.3 1.1 2.3 2.3v.4h-3.8c0 .9.8 1.6 1.7 1.6.6 0 1.1-.2 1.5-.7l.4.4c-.5.6-1.2.9-2 .9-1.3 0-2.4-1.1-2.4-2.4zm3.9-.3c0-.9-.7-1.6-1.5-1.6-.9.1-1.5.8-1.6 1.6h3.1zm2-2.2h.7v1.2c.3-.8 1.1-1.4 2-1.3v.8h-.1c-1.1 0-1.9.9-1.9 2v2.1h-.7v-4.8zm3.3 4.2l.4-.5c.5.4 1.1.6 1.7.6.5.1.9-.2 1-.7v-.1c0-.5-.6-.7-1.2-.9s-1.6-.5-1.6-1.4c0-.8.7-1.4 1.5-1.4h.2c.6 0 1.2.2 1.7.5l-.3.5c-.4-.3-.9-.4-1.4-.5-.4-.1-.8.2-.9.7 0 .5.6.6 1.2.8.6.2 1.5.5 1.5 1.4 0 .8-.7 1.5-1.6 1.5h-.1c-.8.2-1.5 0-2.1-.5zm5.1-6h.8v.8h-.8v-.8zm0 1.8h.7v4.8h-.7v-4.8zm2.6 3.6v-2.9h-.7v-.6h.7v-1.4h.7v1.5H91v.6h-1.5v2.8c-.1.4.2.7.6.8h.2c.2 0 .5-.1.7-.2v.6c-.3.1-.6.2-.9.2-.7.1-1.3-.4-1.4-1.1.1-.1.1-.2.1-.3zm7.1-3.6h.8l-2 5c-.2.8-.8 1.3-1.6 1.4-.3 0-.7-.1-1-.2l.2-.6c.2.1.5.2.8.2.5 0 .9-.4 1-.9l-2.2-4.8h.8l1.8 4 1.4-4.1zm4.4 2.5c0-1.4 1.1-2.5 2.5-2.5s2.5 1.1 2.5 2.5-1.1 2.5-2.5 2.5h-.1c-1.2 0-2.3-1.1-2.4-2.5zm4.3 0c0-1-.8-1.8-1.8-1.9-1 0-1.8.8-1.8 1.8s.7 1.8 1.7 1.9c1.1 0 1.9-.8 1.9-1.8zm2.3-1.8h-.7v-.6h.7v-.4c0-.5.1-.9.4-1.2.3-.2.6-.4 1-.4.3 0 .5 0 .8.1v.6c-.2-.1-.5-.1-.7-.1-.5 0-.8.3-.9.8v.6h1.5v.6h-1.5v4.2h-.7l.1-4.2zm-52.5 8.8h.6l3 6.5h-.8l-.8-1.7h-3.5l-.8 1.7h-.7l3-6.5zm1.8 4.1l-1.5-3.3-1.5 3.3h3zm3-2.4h.7v1c.4-.7 1.1-1.1 1.8-1.1 1.3 0 2.3 1.1 2.3 2.4.1 1.3-.9 2.4-2.2 2.5h-.1c-.7 0-1.4-.4-1.8-1V43h-.7v-6.2zm4.1 2.4c.1-1-.6-1.8-1.6-1.9h-.1c-1 0-1.8.9-1.7 1.8 0 1 .7 1.8 1.7 1.9.9 0 1.7-.8 1.7-1.8 0 .1 0 0 0 0zm2.1-2.4h.7v1c.4-.7 1.1-1.1 1.8-1.1 1.3 0 2.3 1.1 2.3 2.4v.1c.1 1.3-.9 2.4-2.2 2.5h-.1c-.7 0-1.4-.4-1.8-1v2.4h-.7v-6.3zm4.1 2.4c.1-1-.6-1.8-1.6-1.9h-.1c-1 0-1.8.8-1.8 1.8s.7 1.8 1.7 1.9c.9 0 1.7-.7 1.7-1.7.1 0 .1 0 .1-.1zm2.1-4.4h.7v6.8h-.7v-6.8zm2.4.2h.8v.8H74V35zm0 1.8h.7v4.8H74v-4.8zm2.1 2.4c-.1-1.3.9-2.4 2.2-2.5h.1c1.3 0 2.3 1.1 2.3 2.3v.4h-3.8c0 .9.8 1.6 1.7 1.6.6 0 1.1-.2 1.5-.7l.4.4c-.5.6-1.2.9-2 .9-1.3 0-2.4-1.1-2.4-2.4 0 .1 0 .1 0 0zm3.8-.2c0-.9-.7-1.6-1.5-1.6-.9.1-1.5.8-1.6 1.6h3.1zm1.8.2c-.1-1.3.9-2.4 2.2-2.5h.1c.7 0 1.4.4 1.8 1v-2.9h.7v6.8h-.7v-1c-.4.7-1.1 1.1-1.8 1.1-1.4 0-2.4-1.1-2.3-2.5-.1.1-.1.1 0 0zm4.1 0c0-1-.7-1.8-1.7-1.8-.9 0-1.7.8-1.7 1.7v.1c-.1 1 .7 1.8 1.6 1.9h.1c1 0 1.7-.9 1.7-1.9zm4.8 1.5l.4-.5c.6.6 1.4.9 2.2.9.7.1 1.3-.3 1.4-1V40c0-.6-.3-1-1.7-1.2-1.4-.2-2.2-.8-2.2-1.9 0-1.1.9-1.9 2-1.8h.2c.8 0 1.7.3 2.3.8l-.4.6c-.5-.4-1.2-.7-1.9-.7-.7-.1-1.3.3-1.4 1 0 .6.3 1 1.8 1.3s2.1.8 2.1 1.8c-.1 1.1-1 1.9-2.1 1.8h-.1c-.9 0-1.9-.4-2.6-1zm6-1.5c0-1.4 1.1-2.5 2.5-2.5.7 0 1.4.3 1.9.9l-.5.5c-.4-.5-.9-.7-1.5-.8-1 0-1.7.8-1.7 1.8-.1 1 .7 1.8 1.7 1.9.6 0 1.1-.3 1.5-.7l.5.4c-.8 1.1-2.4 1.3-3.5.4-.6-.4-1-1.1-.9-1.9zm5.6-4.2h.8v.8h-.8V35zm0 1.8h.7v4.8h-.7v-4.8zm2.1 2.4c-.1-1.3.9-2.4 2.2-2.5h.1c1.3 0 2.3 1.1 2.3 2.3v.4H105c0 .9.8 1.6 1.7 1.6.6 0 1.1-.2 1.5-.7l.4.4c-.5.6-1.2.9-2 .9-1.3.1-2.3-1-2.3-2.4 0 .1 0 .1 0 0zm3.8-.2c0-.9-.7-1.6-1.5-1.6-.9 0-1.6.8-1.6 1.6h3.1zm2-2.2h.7v.8c.3-.6 1-1 1.7-.9 1-.1 1.8.7 1.8 1.6v3.3h-.7v-2.8c.1-.7-.4-1.3-1.1-1.4h-.2c-.8 0-1.4.6-1.4 1.4v2.9h-.7c-.1-.1-.1-4.9-.1-4.9zm5.4 2.4c0-1.4 1.1-2.5 2.5-2.5.7 0 1.4.3 1.9.9l-.5.5c-.4-.4-.9-.7-1.5-.7-1 0-1.7.8-1.7 1.8s.7 1.8 1.7 1.9c.6 0 1.1-.3 1.5-.7l.5.4c-.8 1.1-2.4 1.3-3.5.4-.5-.4-.9-1.2-.9-2zm5.2 0c-.1-1.3.9-2.4 2.2-2.5h.1c1.3 0 2.3 1.1 2.3 2.3v.4h-3.8c0 .9.8 1.6 1.7 1.6.6 0 1.1-.2 1.5-.7l.4.4c-.5.6-1.2.9-2 .9-1.3 0-2.4-1.1-2.4-2.4 0 .1 0 .1 0 0zm3.8-.2c0-.9-.6-1.6-1.5-1.6-.9.1-1.5.8-1.6 1.6h3.1zm1.6 2l.4-.5c.5.4 1.1.6 1.7.6.5.1.9-.2 1-.7v-.1c0-.5-.6-.7-1.2-.8-.6-.1-1.6-.5-1.6-1.4 0-.8.7-1.4 1.5-1.4h.2c.6 0 1.2.2 1.7.5l-.3.5c-.4-.3-.9-.4-1.4-.5-.4-.1-.8.2-.9.7 0 .5.6.6 1.2.8.7.2 1.5.5 1.5 1.4 0 .8-.7 1.5-1.6 1.5h-.1c-.8.1-1.5-.2-2.1-.6z"/>
</svg>
